<svg version="1.0" xmlns="http://www.w3.org/2000/svg" width="1200" height="956" viewBox="0 0 900 717"><g fill="green"><path d="M1.7 4.6c-.3.3-.3 1.3 0 2.2 1.9 6.1 17.7 38.8 27.4 56.7 2.6 4.9 6 11.2 7.4 14 1.5 2.7 3.2 5.9 3.8 7 .7 1.1 3 5.1 5.2 9 2.2 3.8 4.5 7.9 5.2 9 .7 1.1 1.7 2.9 2.3 4 .6 1.1 1.9 3.3 3 5 1.1 1.6 2.4 3.9 3 5 .6 1.1 1.8 3.2 2.8 4.7.9 1.4 4.3 6.8 7.5 12 3.2 5.1 6.4 10.2 7 11.2 4 6.4 34.2 51.4 38.7 57.6 10.3 14.4 34.4 46.5 38.4 51.4 5.4 6.4 10.2 12.2 15.1 18.1 8.2 9.9 9.2 10.8 10.7 10.2.9-.3 1.9-2.1 2.2-3.9.6-3.1 2.6-10.4 4.6-17.2 1.1-3.5.7-4.4-8.4-16.6-3.9-5.3-7.5-10.3-8.1-11.2-.5-.9-3.2-4.9-6-8.9-2.7-4.1-5.4-8.1-6-9.1-.5-.9-4.2-7-8.2-13.5-9.4-15.6-10.8-17.9-13.9-23.8-1.4-2.8-4.8-9.1-7.4-14-2.7-5-5.8-11-7-13.5-9-18.4-15.9-33.9-16-35.8 0-.5 5.5 1.1 6.5 1.8.6.4 6.6 3.1 13.5 6 6.9 2.8 13.9 5.7 15.5 6.4 1.7.8 5 2.1 7.5 3.1 2.5.9 5.6 2.2 7 2.7 1.4.6 3.9 1.4 5.5 1.8 1.7.5 5.5 1.8 8.5 3s6.9 2.6 8.5 3c3.5 1 26.4 8.6 31.5 10.5 1.9.7 6.2 2.1 9.5 3 3.3 1 7.8 2.4 10 3 12.9 4.1 38.1 11.1 53.5 15 3.6.9 8.8 2.3 11.6 3.1 2.8.8 5.9 1.4 6.9 1.4s4.1.6 6.9 1.4c2.8.8 8.7 2.2 13.1 3.1 4.4.9 10.9 2.3 14.5 3 25 5.3 77.6 14.2 97.5 16.5 8.4 1 20.3 2.6 34.5 4.6 5.8.8 12.6 1.4 15.2 1.4 2.6 0 9.4.6 15 1.4 5.7.8 16.3 1.7 23.7 2.1 7.4.3 14.3 1.1 15.4 1.6 3.8 2.1 20.5 23.5 24 30.9.4.8 2.1 3.7 3.8 6.5 1.6 2.7 3.7 6.3 4.5 8 .8 1.6 2.3 4.3 3.4 6 1.1 1.6 2.3 3.7 2.7 4.5 1.5 3.4 5.4 9 6.2 9 1.3 0 14.6-11.1 14.9-12.5.3-1.2-4.7-9-13.7-21.3-2.5-3.4-8.4-11.6-13.1-18.2-13.5-19-31.9-43.2-44.5-58.6-6.1-7.5-27.5-32.4-31.6-36.9-2-2.2-7.2-7.8-11.5-12.5-9.2-10-41.6-42.5-52.4-52.5C407 45 367.1 13 363.6 13c-1.3 0-10.6 10.2-23.7 26.1-2.1 2.4-5.4 6.4-7.4 8.9-22.3 26.7-61.6 86.3-58.8 89.1.6.6 3.7 1.5 6.9 1.9 6.7.9 15.3 2.5 23.6 4.4 4.9 1.2 6 1.2 7.7-.1 1.2-.8 2.1-1.8 2.1-2.3 0-1.2 9.6-17.1 16.7-27.8 5.5-8.3 5.6-8.4 9-7.7 1.9.3 5 1.3 6.9 2.1 1.9.8 5 2.1 7.1 3 4.7 2 5.4.8 3.6-5.9-.7-2.8-1.3-6.4-1.3-7.9s-.5-5.9-1.2-9.7c-1.2-6.8-1.1-7 1.6-10.5 1.5-2 3.6-3.6 4.6-3.6 1.6 0 8.7 3.6 14 7 .8.6 2.4 1.4 3.5 1.9 3 1.3 19.5 11.4 29.5 18 4.7 3.1 9 5.8 9.6 6.1 2.2 1.1 41.4 29.7 42.9 31.4.6.6 4.6 4 9 7.6 4.4 3.5 9.1 7.4 10.5 8.7 1.4 1.2 4.1 3.6 6 5.3 8.9 7.8 30.9 28.7 31.4 29.9.4.8.3 1.8-.2 2.3-1.1 1.1-43.4-.7-62.7-2.7-29.4-3-50-6.1-80.5-12.1-16.7-3.2-22.8-4.6-40.2-9-11.2-2.7-27.1-7.1-31.3-8.6-1.6-.5-4.6-1.3-6.5-1.8-1.9-.4-4.6-1.2-6-1.7-1.4-.6-5.2-1.8-8.5-2.8-3.3-.9-7.6-2.3-9.5-3-8.2-2.9-10.7-3.7-13.5-4.5-1.6-.5-5.5-1.8-8.5-3s-6.6-2.5-8-3c-1.4-.5-5-1.8-8-3s-6.7-2.5-8.1-3c-1.4-.4-3.4-1.2-4.5-1.8-1-.5-3.9-1.8-6.4-2.7-2.5-.9-6.1-2.4-8-3.2-1.9-.8-5-2.1-6.8-2.9-25.7-10.8-66.7-31.2-87.2-43.2-1.9-1.2-4.6-2.7-6-3.5-1.4-.7-8.1-4.7-14.8-8.8-6.8-4.1-13.1-7.9-14-8.4-1.5-.9-11.4-7.5-27.7-18.5-8.2-5.6-40.8-30-44-33.1-3.2-3-3.8-3.3-4.8-2.3z"/><path d="M146 158c0 .9 8.3 14.9 15.2 25.8 1 1.5 2.2 3.6 2.8 4.7.6 1.1 1.8 3.2 2.8 4.7 4.8 7.4 10.8 17.1 11.9 19.2 2.4 4.4 3.9 5.1 8.1 3.3 2-.8 5.1-2.1 6.9-2.7 1.8-.7 3.7-1.7 4.2-2.4.6-.7-7.1-9.3-24.9-27.4-14.1-14.4-26-26.2-26.4-26.2-.3 0-.6.5-.6 1zm720.5 18.1c-3.3.5-11.2 1.3-17.5 1.8-6.3.6-15.8 1.5-21 2.1-93.9 10.7-105.4 11.9-124.5 13-7.7.5-18.7 1.3-24.5 1.9-5.8.5-24.4 1.2-41.5 1.6-43.4.8-53.5 1.4-53.5 3.2 0 1.6 6.6 11.9 8.3 13 .6.3 4.4 1 8.6 1.4 4.2.4 10.8 1.2 14.6 1.8 12.5 1.9 33.1 4.4 70.5 8.6 7.5.8 15.4 1.5 17.7 1.5 2.3 0 4.4.4 4.7.9.3.4-9.4 6.8-21.5 14.2-12.1 7.4-23.2 14.2-24.7 15.1-1.5 1-3.6 2.2-4.7 2.8-1.1.6-3.2 1.8-4.7 2.8-1.4.9-8.1 5.1-14.8 9.2-6.6 4.1-13.3 8.3-14.8 9.2-1.5 1-3.6 2.2-4.7 2.8-1.1.6-3.2 1.8-4.7 2.8-1.4.9-7.5 4.6-13.4 8.2-13.9 8.4-14.5 8.7-16.9 10-1.1.6-3.3 1.9-5 3-1.6 1.1-3.7 2.3-4.5 2.7-.8.3-3.3 1.8-5.5 3.2-2.2 1.4-5.5 3.4-7.4 4.4-1.9 1-5.2 3.1-7.5 4.5-5.4 3.5-7.7 4.9-10.1 6.2-1.1.6-3.2 1.8-4.7 2.8-4.3 2.8-16.7 10.6-18.6 11.7-.9.6-4.5 2.9-8 5.3-3.5 2.3-6.6 4.2-6.9 4.2-.3 0-2.2 1.2-4.2 2.7-2 1.6-4.4 3.2-5.3 3.8-2.1 1.3-24.9 16.9-35.3 24.2-8.6 6.1-40 29.8-47.6 36-2.6 2.1-6.7 5.5-9.2 7.6l-4.5 3.8-3.8-2.1c-2.2-1.2-5.2-3-6.9-4.1-1.6-1-3.9-2.3-5-2.9-1.1-.6-3.3-1.9-5-3-1.6-1.1-3.7-2.3-4.5-2.7-3.6-1.7-33.5-22.4-44.3-30.7-18.7-14.4-39.8-31.3-45.1-36.1-.6-.6-3.3-2.8-6.1-5-2.7-2.2-5.7-4.6-6.6-5.5-2.2-2.1-5.6-5-11.4-9.6-6.3-5-10.3-8.4-12.6-10.7-2.3-2.5-5.3-1.8-5.7 1.3-.1 1.4-1 5.1-1.9 8.2l-1.6 5.7 3.4 4.3c3.5 4.5 6.4 7.8 18.9 21.2 17.1 18.4 51.7 50.2 68 62.5 2.5 1.9 5 4 5.5 4.6 4.4 5 83.2 62.2 96.3 70 .9.5 3.3 2.2 5.2 3.6 1.9 1.4 4 2.8 4.5 3 .6.2 7.5 4.7 15.5 10 14.3 9.4 24.7 15.9 33.8 21 2.6 1.5 6.3 3.6 8.2 4.7 1.9 1.2 5.8 3.3 8.5 4.7 2.8 1.5 7.7 4.1 11 5.9 3.3 1.8 9.4 4.9 13.5 7 4.1 2.1 8.2 4.2 9 4.7.8.5 2.2 1.2 3 1.5.8.3 5.8 2.6 11 5.1 5.2 2.5 10.9 5.1 12.5 5.8 9.2 4.2 14.6 6.5 19.5 8.5 3 1.2 7 2.8 8.8 3.6 9.3 4 9.9 4.3 21.7 8.7 2.2.8 5.9 2.2 8.3 3.1 9.7 3.7 17.9 6.5 21.7 7.6 1.7.5 4.6 1.4 6.5 2.1 1.9.6 5.1 1.7 7 2.4 1.9.7 6.2 2 9.5 2.9 3.3 1 7.4 2.2 9 2.8 1.7.5 4.6 1.3 6.5 1.8 1.9.4 7.1 1.8 11.5 3 4.4 1.3 9.8 2.6 12 3 2.2.4 5.8 1.2 8 1.8 13.6 3.6 54.1 10.6 55.7 9.6 1.1-.7 1-4-.2-6.2-1.1-1.8-3.6-8.9-5-13.7-.4-1.7-1.8-5.5-3-8.5s-2.5-6.9-3-8.5c-.5-1.7-1.8-5.5-3-8.5s-2.4-6.6-2.7-8c-.3-1.4-1-3-1.5-3.7-.6-.7-1.4-2.7-1.8-4.5-.5-1.8-1.8-5.8-3-8.8-1.2-3-2.5-6.9-3-8.5-.5-1.7-1.8-5.5-3-8.5s-2.5-6.6-3-8c-.5-1.4-1.8-5-3-8s-2.4-6.6-2.7-8c-.3-1.4-1-3-1.5-3.7-.6-.7-1.4-2.7-1.8-4.5-.5-1.8-1.8-5.8-3-8.8-1.2-3-2.6-6.9-3.1-8.7-.5-1.8-1.4-3.5-1.9-3.8-.6-.4-1-1.5-1-2.5s-.6-3.1-1.4-4.7c-.8-1.5-2.2-4.7-3-7.1-.9-2.3-2.2-5.9-3-8-.8-2-2.8-7.3-4.6-11.7-1.8-4.4-3.9-9.8-4.7-12-.9-2.2-2.1-5.4-2.8-7-.8-1.7-3.5-8.2-6-14.5-2.6-6.3-5.3-12.9-6-14.5-.7-1.7-2-4.6-2.8-6.5-.8-1.9-2.2-5.1-3-7-.9-1.9-2.8-6.2-4.2-9.5-2.6-5.9-4.4-9.8-8.6-19.3-3.1-6.8-12.6-26.6-16.2-34-3.4-6.7-4.3-7.2-9.9-4.8-3.1 1.3-5 2.1-16 6.2-7.8 2.9-13 5.4-12.6 6.2.2.4 2.3 4.8 4.7 9.7 12.5 25.9 23.4 48.6 28.1 59 1.5 3.3 4.1 8.9 5.8 12.5 4.9 10.5 11.9 26.2 16.5 37 .8 1.9 2.3 5.3 3.3 7.5.9 2.2 2.3 5.5 3.1 7.2.7 1.8 1.9 4.8 2.7 6.5.7 1.8 2 5.1 2.9 7.3.8 2.2 2.9 7.6 4.7 12 1.8 4.4 3.8 9.7 4.6 11.7.8 2.1 2.1 5.6 2.9 7.8 3.9 10.5 6.5 17.8 7.5 21.5 1.1 3.9 2.9 9.1 4.6 13.3.8 1.8 1.4 4.2 1.4 5.3 0 2-.4 2.1-7.2 1.6-10.8-.7-20.6-2.8-47.6-10.2-3.1-.9-7-2.1-8.7-2.6-12.3-4.2-18.5-5.5-18.5-4.1 0 1.6 8.9 6.5 30.5 17.1 10.5 5.1 19.7 9.7 20.5 10.2 1.6 1 3 1.6 5.6 2.4 2.1.7.8 2.5-1.8 2.5-2.3 0-4.4-.6-28.3-7.5-3.3-1-7.5-2.4-9.3-3.1-1.8-.8-4.1-1.4-5-1.4-1 0-2.7-.7-3.8-1.5-1-.8-2.7-1.5-3.6-1.5-1 0-3.2-.6-5-1.4-1.8-.8-5.3-2.2-7.8-3.1-2.5-.9-5.8-2.3-7.5-3-1.6-.7-8.6-3.6-15.5-6.5-24.1-10.1-64-29.6-67.3-32.9-.6-.6-1.9-1.1-2.8-1.1-2.4 0-3.4-1.9-1.4-2.6 1.5-.6 7.2.8 16.5 4.1 1.9.7 6.2 2 9.5 3 3.3.9 7.6 2.3 9.5 3 1.9.7 6.2 2 9.5 3s7.7 2.4 9.8 3.1c2 .8 4.8 1.4 6.2 1.4 1.3 0 2.7.5 3 1 .3.5 1.4 1 2.3 1 2.5-.1-.8-2.4-17.6-12.7-7.9-4.9-15.6-9.6-17-10.5-1.5-1-3.4-2.1-4.2-2.5-.8-.4-6.8-4.3-13.3-8.8-6.5-4.4-12.6-8.5-13.5-9-.9-.6-7.2-5.2-14.1-10.2-6.8-5.1-13-9.3-13.8-9.3-1.8 0-11.3 9-14.8 14-3.1 4.4-4.6 4.8-9 1.9-1.6-1-3.6-2.2-4.4-2.6-5.6-2.6-51-36.3-51.1-37.8 0-.6 3.5-3.8 7.7-7 4.2-3.3 9.3-7.4 11.2-9.1 5-4.3 57.7-43.3 62.2-45.9l18-12c9-6.1 17-11.3 17.9-11.8.8-.4 2.7-1.5 4.2-2.5 4.5-2.9 39.2-23.8 40.8-24.5.8-.4 2.9-1.5 4.5-2.5 1.7-1 6.4-3.7 10.5-5.9 4.1-2.3 10.4-5.7 14-7.7 3.6-2 10.1-5.5 14.5-7.7s12.1-6.2 17-8.9c5-2.6 24.8-12.8 44-22.5 19.3-9.7 35.7-18.1 36.5-18.5 2-1.1 48.9-24 60.5-29.5 5-2.4 14.9-7.1 22-10.5 7.2-3.4 15.7-7.5 19-9 3.3-1.5 9.8-4.6 14.5-6.8 8.3-3.9 18.1-8.4 26.8-12.3 2.3-1 6.1-2.8 8.5-3.9 2.3-1 7.3-3.2 11.2-4.9 3.8-1.6 7.1-3.4 7.3-4 .4-1.3-16.2-1.3-25.3 0z"/><path d="M247.2 183.7c-2.7 4-12.1 23.7-18.2 38.3-2.9 6.9-5.8 13.8-6.5 15.5-.7 1.6-2.1 5-3 7.5-.9 2.5-2.1 5.3-2.6 6.2-.8 1.6-2.7 6.6-4.9 12.8-.5 1.4-1.8 5-3 8s-2.5 6.6-3 8c-.5 1.4-1.8 5-3 8s-2.5 6.6-3 8c-.5 1.4-1.8 5-3 8s-2.5 6.8-3 8.5c-.5 1.6-1.9 6.1-3.3 10-1.3 3.8-3.2 9.7-4.1 13-1 3.3-2.4 7.8-3.2 10-.8 2.3-1.4 4.9-1.4 6 0 1.1-.6 3.7-1.4 6-.7 2.2-2.1 7.6-3.1 12-.9 4.4-2.3 10.7-3 14-.8 3.3-2.1 9.8-3 14.5-.9 4.7-2.3 11.6-3.1 15.5-.8 3.8-1.4 8.1-1.4 9.4 0 1.3-.7 6-1.5 10.5-.8 4.4-2.1 13.3-2.9 19.6-.9 6.3-2.2 16.7-3.1 23-.8 6.3-1.5 13.5-1.5 16s-.6 10.6-1.4 18c-4.4 41.1-4.7 117-.5 160.5.6 6 1.5 15.4 1.9 20.7.5 5.4 1.4 10.6 1.9 11.7.6 1 2.8 2.8 5 4 2.2 1.1 6 3.3 8.3 4.8 10.3 6.6 11.7 6.7 15.5 1.2 1.5-2.2 6.8-9.5 11.6-16.2 4.8-6.7 10.1-14 11.7-16.2 4-5.6 38.9-52.7 40.4-54.6.7-.9 6.1-7.8 11.9-15.5 30.8-40.1 56.3-69.6 89.5-103.6 7.4-7.5 13.3-14 13.1-14.5-.2-.6-4-4.1-8.4-7.9-4.4-3.8-9.1-7.9-10.5-9.1-3.2-3-5-2.9-8.7.4-4.8 4.3-8.1 7.2-16.8 14.7-11.7 10.1-19.2 17.3-47 45.1-31.6 31.6-55.9 57.8-69.3 74.5-2 2.5-4.9 5.8-6.4 7.4-1.6 1.7-2.8 3.3-2.8 3.8 0 .4-.7.8-1.5.8s-1.7-1.5-2.1-3.7c-1.1-5.7.4-56.1 2.1-68.1.7-5.9 1.7-14.5 2.1-19.1.6-7.6.5-8.2-1.1-7.4-.9.5-2.2 2.1-3 3.4-2 3.8-8.5 17-10.2 20.9-.9 1.9-2.2 4.8-2.9 6.3-.8 1.6-1.4 3.6-1.4 4.6 0 .9-.6 2.5-1.4 3.6-.7 1.1-1.6 3.3-2 5-.7 2.7-.9 2.8-1.8 1.1-1.5-2.7.7-35.7 3.8-55.6 2.7-17.3 4.6-28.4 6-35 .7-3.6 1.5-7.8 1.6-9.3.2-1.5.8-2.8 1.3-3 .6-.1 4.1 3.9 7.9 8.8 3.7 5 7.1 9 7.5 9 .3 0 .9-7.9 1.2-17.5 1.2-34.4 6.2-99 10-128.5.6-4.4 1.5-11.6 1.9-16 1.6-14.9 7.2-36.2 15-56.5 1.2-3 2.5-6.7 3-8.1.4-1.4 1.2-3.4 1.8-4.5.6-1 3.4-7.5 6.2-14.4 4.7-11.1 6.6-15.5 11.4-26.5.8-1.7 2.8-5.9 4.4-9.5 4-8.4 4.6-11.1 3-13.1-1.5-1.8-9.3-7.9-10.1-7.9-.3 0-1.4 1.2-2.5 2.7zm132.4 22.1c-.2.4 1 3.9 2.8 7.7 4.2 8.9 5.6 12.9 6.7 18.5.5 2.5 1.3 6.3 1.8 8.5 1.6 6.2 1.3 20.2-.5 26.9-.9 3.4-3 9-4.6 12.4-2.5 5.7-2.8 7.3-2.6 14.5.4 10.6 1.8 11.1 9.1 3.1 2.8-3.2 6.2-6.9 7.4-8.2 3.2-3.5 4.4-2 2.8 3.6-2.8 9.8-5.5 22.3-5.8 26.6-.1 1.4 2.2 3.9 7.3 7.8 4.1 3.3 8.4 6.4 9.5 6.9 3.2 1.6 6.2 3.4 7.9 4.8.9.7 2.2 1.1 3 .8 1.1-.4 1.3-2.7.8-11.5-.6-14-.1-15.1 14-27.5 3.7-3.2 7.3-7.5 8.3-9.7 1.7-3.8 1.7-4.2.1-7.8-2-4.5-7.3-10.5-13.3-15.1-3.4-2.6-12.3-14.6-12.3-16.6 0-.3-2.1-4.9-4.7-10.3-8.3-17.2-16.5-26.4-29.9-33.3-6.2-3.1-7-3.3-7.8-2.1z"/><path d="M446.5 233.1c-6 .5-11.4 1.4-11.9 1.9-.6.6-.4 2.3.7 4.5.9 2 1.7 4.2 1.7 5 0 2.4 2.1 2.9 12.5 3.1 28.9.6 57 6.1 64.9 12.6 2.9 2.3 3.6 3.6 3.6 6.4 0 7.3-18.7 22.1-43.2 34.1-13.8 6.8-21.4 9.9-32.8 13.4-3.9 1.2-4.5 1.8-4.8 4.4-.5 5.8.7 6.2 10 3.7 13.6-3.7 17.9-5.1 24.3-7.8 1.7-.7 5.5-2.2 8.5-3.4 6.7-2.7 16-6.8 18-8 .8-.5 3.5-1.9 6-3.1 19.2-9.6 37-23.4 40.6-31.6 2.8-6.5 1.3-14.9-3.8-20.6-5.6-6.2-17.8-11-34.8-13.7-9.8-1.6-45.5-2.1-59.5-.9zM366 249.2c-4.3.9-8.8 2.1-20.2 5.3-6.7 1.9-25.5 8-28.8 9.3-1.4.5-4.5 1.8-7 2.7-18.8 7.3-37.2 17.5-44.6 24.9-2.9 2.9-5.4 8-5.4 11 0 1.4 1.4 4.1 3.1 6 7.1 8.1 28.1 14.3 60.9 18 18 2.1 45.7 3.9 46.8 3.2 1-.6.3-4.5-2-10.7-2.3-6.2-3.4-6.9-10.2-6.9-11.4 0-38.6-3.3-50.1-6.2-2.2-.5-5.9-1.3-8.1-1.8-6.5-1.4-10.9-4.3-10.9-7.1 0-2.6 5.9-7.1 16-12.4 5-2.6 7.7-4.1 10.5-5.7.8-.4 2.2-1.1 3-1.4.8-.4 3.8-1.7 6.5-2.9 7.3-3.3 12.7-5.6 15.5-6.5 1.4-.5 5-1.8 8-3 6.3-2.4 14.6-5.2 20.7-6.9 5.1-1.4 5.6-2.1 4.7-6.6-.7-3.8-.9-3.9-8.4-2.3zm-103.4 192c-.3 2.9-.7 12-1 20.1l-.5 14.8 2.3-3.4c1.3-1.9 2.6-4.7 2.8-6.3.3-1.6 1.1-4.4 1.7-6.2 2.7-7.8 5.6-17.3 6.8-22 .5-2.1.3-2.2-5.5-2.2h-6.1l-.5 5.2zm364.9-1.2c-9.9 4.9-10 4.7 2.4 16.9 5.9 5.8 13.8 14.2 17.6 18.6 3.8 4.4 7.4 8.5 8 9.1.5.6 2.8 3.2 5 5.9 11.5 13.8 23.1 27.3 25.1 29.4 6.3 6.4-1-8.5-17-34.7-4.4-7.3-8.6-14.1-9.1-15-2-3.3-16.4-24.5-20.5-30-1.3-1.7-3.1-3.2-3.9-3.2-.9.1-4.3 1.4-7.6 3zM554 458.1c-8.1 8.8-8.6 9.8-6.3 10.5 1 .3 3.3 1.2 5.1 2 1.8.8 3.9 1.4 4.7 1.4.7 0 2.6.6 4.2 1.4 1.5.7 4.4 2 6.3 2.9 9.8 4.3 14.7 6.6 28.5 13.4 8.3 4.1 17.7 8.9 21 10.8 3.3 1.8 8.3 4.5 11 5.9 2.8 1.5 5.7 3.1 6.5 3.6 8.7 5.6 15.8 8.5 14.8 6.2-.3-.8-14.5-13.2-27.8-24.3-9.2-7.6-33-25.2-42-31-13.4-8.6-15.6-9.9-17.6-9.9-1.1 0-4.7 3.1-8.4 7.1z"/></g></svg>