<?xml version="1.0" standalone="no"?>
<!DOCTYPE svg PUBLIC "-//W3C//DTD SVG 20010904//EN"
 "http://www.w3.org/TR/2001/REC-SVG-20010904/DTD/svg10.dtd">
<svg version="1.0" xmlns="http://www.w3.org/2000/svg"
 width="900.000000pt" height="717.000000pt" viewBox="0 0 900.000000 717.000000"
 preserveAspectRatio="xMidYMid meet">
<metadata>
Created by potrace 1.10, written by Peter Selinger 2001-2011
</metadata>
<g transform="translate(0.000000,717.000000) scale(0.100000,-0.100000)"
fill="green" stroke="none">
<path d="M17 7124 c-3 -3 -3 -13 0 -22 19 -61 177 -388 274 -567 26 -49 60
-112 74 -140 15 -27 32 -59 38 -70 7 -11 30 -51 52 -90 22 -38 45 -79 52 -90
7 -11 17 -29 23 -40 6 -11 19 -33 30 -50 11 -16 24 -39 30 -50 6 -11 18 -32
28 -47 9 -14 43 -68 75 -120 32 -51 64 -102 70 -112 40 -64 342 -514 387 -576
103 -144 344 -465 384 -514 54 -64 102 -122 151 -181 82 -99 92 -108 107 -102
9 3 19 21 22 39 6 31 26 104 46 172 11 35 7 44 -84 166 -39 53 -75 103 -81
112 -5 9 -32 49 -60 89 -27 41 -54 81 -60 91 -5 9 -42 70 -82 135 -94 156
-108 179 -139 238 -14 28 -48 91 -74 140 -27 50 -58 110 -70 135 -90 184 -159
339 -160 358 0 5 55 -11 65 -18 6 -4 66 -31 135 -60 69 -28 139 -57 155 -64
17 -8 50 -21 75 -31 25 -9 56 -22 70 -27 14 -6 39 -14 55 -18 17 -5 55 -18 85
-30 30 -12 69 -26 85 -30 35 -10 264 -86 315 -105 19 -7 62 -21 95 -30 33 -10
78 -24 100 -30 129 -41 381 -111 535 -150 36 -9 88 -23 116 -31 28 -8 59 -14
69 -14 10 0 41 -6 69 -14 28 -8 87 -22 131 -31 44 -9 109 -23 145 -30 250 -53
776 -142 975 -165 84 -10 203 -26 345 -46 58 -8 126 -14 152 -14 26 0 94 -6
150 -14 57 -8 163 -17 237 -21 74 -3 143 -11 154 -16 38 -21 205 -235 240
-309 4 -8 21 -37 38 -65 16 -27 37 -63 45 -80 8 -16 23 -43 34 -60 11 -16 23
-37 27 -45 15 -34 54 -90 62 -90 13 0 146 111 149 125 3 12 -47 90 -137 213
-25 34 -84 116 -131 182 -135 190 -319 432 -445 586 -61 75 -275 324 -316 369
-20 22 -72 78 -115 125 -92 100 -416 425 -524 525 -220 205 -619 525 -654 525
-13 0 -106 -102 -237 -261 -21 -24 -54 -64 -74 -89 -223 -267 -616 -863 -588
-891 6 -6 37 -15 69 -19 67 -9 153 -25 236 -44 49 -12 60 -12 77 1 12 8 21 18
21 23 0 12 96 171 167 278 55 83 56 84 90 77 19 -3 50 -13 69 -21 19 -8 50
-21 71 -30 47 -20 54 -8 36 59 -7 28 -13 64 -13 79 0 15 -5 59 -12 97 -12 68
-11 70 16 105 15 20 36 36 46 36 16 0 87 -36 140 -70 8 -6 24 -14 35 -19 30
-13 195 -114 295 -180 47 -31 90 -58 96 -61 22 -11 414 -297 429 -314 6 -6 46
-40 90 -76 44 -35 91 -74 105 -87 14 -12 41 -36 60 -53 89 -78 309 -287 314
-299 4 -8 3 -18 -2 -23 -11 -11 -434 7 -627 27 -294 30 -500 61 -805 121 -167
32 -228 46 -402 90 -112 27 -271 71 -313 86 -16 5 -46 13 -65 18 -19 4 -46 12
-60 17 -14 6 -52 18 -85 28 -33 9 -76 23 -95 30 -82 29 -107 37 -135 45 -16 5
-55 18 -85 30 -30 12 -66 25 -80 30 -14 5 -50 18 -80 30 -30 12 -67 25 -81 30
-14 4 -34 12 -45 18 -10 5 -39 18 -64 27 -25 9 -61 24 -80 32 -19 8 -50 21
-68 29 -257 108 -667 312 -872 432 -19 12 -46 27 -60 35 -14 7 -81 47 -148 88
-68 41 -131 79 -140 84 -15 9 -114 75 -277 185 -82 56 -408 300 -440 331 -32
30 -38 33 -48 23z"/>
<path d="M1460 5590 c0 -9 83 -149 152 -258 10 -15 22 -36 28 -47 6 -11 18
-32 28 -47 48 -74 108 -171 119 -192 24 -44 39 -51 81 -33 20 8 51 21 69 27
18 7 37 17 42 24 6 7 -71 93 -249 274 -141 144 -260 262 -264 262 -3 0 -6 -5
-6 -10z"/>
<path d="M8665 5409 c-33 -5 -112 -13 -175 -18 -63 -6 -158 -15 -210 -21 -939
-107 -1054 -119 -1245 -130 -77 -5 -187 -13 -245 -19 -58 -5 -244 -12 -415
-16 -434 -8 -535 -14 -535 -32 0 -16 66 -119 83 -130 6 -3 44 -10 86 -14 42
-4 108 -12 146 -18 125 -19 331 -44 705 -86 75 -8 154 -15 177 -15 23 0 44 -4
47 -9 3 -4 -94 -68 -215 -142 -121 -74 -232 -142 -247 -151 -15 -10 -36 -22
-47 -28 -11 -6 -32 -18 -47 -28 -14 -9 -81 -51 -148 -92 -66 -41 -133 -83
-148 -92 -15 -10 -36 -22 -47 -28 -11 -6 -32 -18 -47 -28 -14 -9 -75 -46 -134
-82 -139 -84 -145 -87 -169 -100 -11 -6 -33 -19 -50 -30 -16 -11 -37 -23 -45
-27 -8 -3 -33 -18 -55 -32 -22 -14 -55 -34 -74 -44 -19 -10 -52 -31 -75 -45
-54 -35 -77 -49 -101 -62 -11 -6 -32 -18 -47 -28 -43 -28 -167 -106 -186 -117
-9 -6 -45 -29 -80 -53 -35 -23 -66 -42 -69 -42 -3 0 -22 -12 -42 -27 -20 -16
-44 -32 -53 -38 -21 -13 -249 -169 -353 -242 -86 -61 -400 -298 -476 -360 -26
-21 -67 -55 -92 -76 l-45 -38 -38 21 c-22 12 -52 30 -69 41 -16 10 -39 23 -50
29 -11 6 -33 19 -50 30 -16 11 -37 23 -45 27 -36 17 -335 224 -443 307 -187
144 -398 313 -451 361 -6 6 -33 28 -61 50 -27 22 -57 46 -66 55 -22 21 -56 50
-114 96 -63 50 -103 84 -126 107 -23 25 -53 18 -57 -13 -1 -14 -10 -51 -19
-82 l-16 -57 34 -43 c35 -45 64 -78 189 -212 171 -184 517 -502 680 -625 25
-19 50 -40 55 -46 44 -50 832 -622 963 -700 9 -5 33 -22 52 -36 19 -14 40 -28
45 -30 6 -2 75 -47 155 -100 143 -94 247 -159 338 -210 26 -15 63 -36 82 -47
19 -12 58 -33 85 -47 28 -15 77 -41 110 -59 33 -18 94 -49 135 -70 41 -21 82
-42 90 -47 8 -5 22 -12 30 -15 8 -3 58 -26 110 -51 52 -25 109 -51 125 -58 92
-42 146 -65 195 -85 30 -12 70 -28 88 -36 93 -40 99 -43 217 -87 22 -8 59 -22
83 -31 97 -37 179 -65 217 -76 17 -5 46 -14 65 -21 19 -6 51 -17 70 -24 19 -7
62 -20 95 -29 33 -10 74 -22 90 -28 17 -5 46 -13 65 -18 19 -4 71 -18 115 -30
44 -13 98 -26 120 -30 22 -4 58 -12 80 -18 136 -36 541 -106 557 -96 11 7 10
40 -2 62 -11 18 -36 89 -50 137 -4 17 -18 55 -30 85 -12 30 -25 69 -30 85 -5
17 -18 55 -30 85 -12 30 -24 66 -27 80 -3 14 -10 30 -15 37 -6 7 -14 27 -18
45 -5 18 -18 58 -30 88 -12 30 -25 69 -30 85 -5 17 -18 55 -30 85 -12 30 -25
66 -30 80 -5 14 -18 50 -30 80 -12 30 -24 66 -27 80 -3 14 -10 30 -15 37 -6 7
-14 27 -18 45 -5 18 -18 58 -30 88 -12 30 -26 69 -31 87 -5 18 -14 35 -19 38
-6 4 -10 15 -10 25 0 10 -6 31 -14 47 -8 15 -22 47 -30 71 -9 23 -22 59 -30
80 -8 20 -28 73 -46 117 -18 44 -39 98 -47 120 -9 22 -21 54 -28 70 -8 17 -35
82 -60 145 -26 63 -53 129 -60 145 -7 17 -20 46 -28 65 -8 19 -22 51 -30 70
-9 19 -28 62 -42 95 -26 59 -44 98 -86 193 -31 68 -126 266 -162 340 -34 67
-43 72 -99 48 -31 -13 -50 -21 -160 -62 -78 -29 -130 -54 -126 -62 2 -4 23
-48 47 -97 125 -259 234 -486 281 -590 15 -33 41 -89 58 -125 49 -105 119
-262 165 -370 8 -19 23 -53 33 -75 9 -22 23 -55 31 -72 7 -18 19 -48 27 -65 7
-18 20 -51 29 -73 8 -22 29 -76 47 -120 18 -44 38 -97 46 -117 8 -21 21 -56
29 -78 39 -105 65 -178 75 -215 11 -39 29 -91 46 -133 8 -18 14 -42 14 -53 0
-20 -4 -21 -72 -16 -108 7 -206 28 -476 102 -31 9 -70 21 -87 26 -123 42 -185
55 -185 41 0 -16 89 -65 305 -171 105 -51 197 -97 205 -102 16 -10 30 -16 56
-24 21 -7 8 -25 -18 -25 -23 0 -44 6 -283 75 -33 10 -75 24 -93 31 -18 8 -41
14 -50 14 -10 0 -27 7 -38 15 -10 8 -27 15 -36 15 -10 0 -32 6 -50 14 -18 8
-53 22 -78 31 -25 9 -58 23 -75 30 -16 7 -86 36 -155 65 -241 101 -640 296
-673 329 -6 6 -19 11 -28 11 -24 0 -34 19 -14 26 15 6 72 -8 165 -41 19 -7 62
-20 95 -30 33 -9 76 -23 95 -30 19 -7 62 -20 95 -30 33 -10 77 -24 98 -31 20
-8 48 -14 62 -14 13 0 27 -5 30 -10 3 -5 14 -10 23 -10 25 1 -8 24 -176 127
-79 49 -156 96 -170 105 -15 10 -34 21 -42 25 -8 4 -68 43 -133 88 -65 44
-126 85 -135 90 -9 6 -72 52 -141 102 -68 51 -130 93 -138 93 -18 0 -113 -90
-148 -140 -31 -44 -46 -48 -90 -19 -16 10 -36 22 -44 26 -56 26 -510 363 -511
378 0 6 35 38 77 70 42 33 93 74 112 91 50 43 577 433 622 459 9 6 90 60 180
120 90 61 170 113 179 118 8 4 27 15 42 25 45 29 392 238 408 245 8 4 29 15
45 25 17 10 64 37 105 59 41 23 104 57 140 77 36 20 101 55 145 77 44 22 121
62 170 89 50 26 248 128 440 225 193 97 357 181 365 185 20 11 489 240 605
295 50 24 149 71 220 105 72 34 157 75 190 90 33 15 98 46 145 68 83 39 181
84 268 123 23 10 61 28 85 39 23 10 73 32 112 49 38 16 71 34 73 40 4 13 -162
13 -253 0z"/>
<path d="M2472 5333 c-27 -40 -121 -237 -182 -383 -29 -69 -58 -138 -65 -155
-7 -16 -21 -50 -30 -75 -9 -25 -21 -53 -26 -62 -8 -16 -27 -66 -49 -128 -5
-14 -18 -50 -30 -80 -12 -30 -25 -66 -30 -80 -5 -14 -18 -50 -30 -80 -12 -30
-25 -66 -30 -80 -5 -14 -18 -50 -30 -80 -12 -30 -25 -68 -30 -85 -5 -16 -19
-61 -33 -100 -13 -38 -32 -97 -41 -130 -10 -33 -24 -78 -32 -100 -8 -23 -14
-49 -14 -60 0 -11 -6 -37 -14 -60 -7 -22 -21 -76 -31 -120 -9 -44 -23 -107
-30 -140 -8 -33 -21 -98 -30 -145 -9 -47 -23 -116 -31 -155 -8 -38 -14 -81
-14 -94 0 -13 -7 -60 -15 -105 -8 -44 -21 -133 -29 -196 -9 -63 -22 -167 -31
-230 -8 -63 -15 -135 -15 -160 0 -25 -6 -106 -14 -180 -44 -411 -47 -1170 -5
-1605 6 -60 15 -154 19 -207 5 -54 14 -106 19 -117 6 -10 28 -28 50 -40 22
-11 60 -33 83 -48 103 -66 117 -67 155 -12 15 22 68 95 116 162 48 67 101 140
117 162 40 56 389 527 404 546 7 9 61 78 119 155 308 401 563 696 895 1036 74
75 133 140 131 145 -2 6 -40 41 -84 79 -44 38 -91 79 -105 91 -32 30 -50 29
-87 -4 -48 -43 -81 -72 -168 -147 -117 -101 -192 -173 -470 -451 -316 -316
-559 -578 -693 -745 -20 -25 -49 -58 -64 -74 -16 -17 -28 -33 -28 -38 0 -4 -7
-8 -15 -8 -8 0 -17 15 -21 37 -11 57 4 561 21 681 7 59 17 145 21 191 6 76 5
82 -11 74 -9 -5 -22 -21 -30 -34 -20 -38 -85 -170 -102 -209 -9 -19 -22 -48
-29 -63 -8 -16 -14 -36 -14 -46 0 -9 -6 -25 -14 -36 -7 -11 -16 -33 -20 -50
-7 -27 -9 -28 -18 -11 -15 27 7 357 38 556 27 173 46 284 60 350 7 36 15 78
16 93 2 15 8 28 13 30 6 1 41 -39 79 -88 37 -50 71 -90 75 -90 3 0 9 79 12
175 12 344 62 990 100 1285 6 44 15 116 19 160 16 149 72 362 150 565 12 30
25 67 30 81 4 14 12 34 18 45 6 10 34 75 62 144 47 111 66 155 114 265 8 17
28 59 44 95 40 84 46 111 30 131 -15 18 -93 79 -101 79 -3 0 -14 -12 -25 -27z"/>
<path d="M3796 5112 c-2 -4 10 -39 28 -77 42 -89 56 -129 67 -185 5 -25 13
-63 18 -85 16 -62 13 -202 -5 -269 -9 -34 -30 -90 -46 -124 -25 -57 -28 -73
-26 -145 4 -106 18 -111 91 -31 28 32 62 69 74 82 32 35 44 20 28 -36 -28 -98
-55 -223 -58 -266 -1 -14 22 -39 73 -78 41 -33 84 -64 95 -69 32 -16 62 -34
79 -48 9 -7 22 -11 30 -8 11 4 13 27 8 115 -6 140 -1 151 140 275 37 32 73 75
83 97 17 38 17 42 1 78 -20 45 -73 105 -133 151 -34 26 -123 146 -123 166 0 3
-21 49 -47 103 -83 172 -165 264 -299 333 -62 31 -70 33 -78 21z"/>
<path d="M4465 4839 c-60 -5 -114 -14 -119 -19 -6 -6 -4 -23 7 -45 9 -20 17
-42 17 -50 0 -24 21 -29 125 -31 289 -6 570 -61 649 -126 29 -23 36 -36 36
-64 0 -73 -187 -221 -432 -341 -138 -68 -214 -99 -328 -134 -39 -12 -45 -18
-48 -44 -5 -58 7 -62 100 -37 136 37 179 51 243 78 17 7 55 22 85 34 67 27
160 68 180 80 8 5 35 19 60 31 192 96 370 234 406 316 28 65 13 149 -38 206
-56 62 -178 110 -348 137 -98 16 -455 21 -595 9z"/>
<path d="M3660 4678 c-43 -9 -88 -21 -202 -53 -67 -19 -255 -80 -288 -93 -14
-5 -45 -18 -70 -27 -188 -73 -372 -175 -446 -249 -29 -29 -54 -80 -54 -110 0
-14 14 -41 31 -60 71 -81 281 -143 609 -180 180 -21 457 -39 468 -32 10 6 3
45 -20 107 -23 62 -34 69 -102 69 -114 0 -386 33 -501 62 -22 5 -59 13 -81 18
-65 14 -109 43 -109 71 0 26 59 71 160 124 50 26 77 41 105 57 8 4 22 11 30
14 8 4 38 17 65 29 73 33 127 56 155 65 14 5 50 18 80 30 63 24 146 52 207 69
51 14 56 21 47 66 -7 38 -9 39 -84 23z"/>
<path d="M2626 2758 c-3 -29 -7 -120 -10 -201 l-5 -148 23 34 c13 19 26 47 28
63 3 16 11 44 17 62 27 78 56 173 68 220 5 21 3 22 -55 22 l-61 0 -5 -52z"/>
<path d="M6275 2770 c-99 -49 -100 -47 24 -169 59 -58 138 -142 176 -186 38
-44 74 -85 80 -91 5 -6 28 -32 50 -59 115 -138 231 -273 251 -294 63 -64 -10
85 -170 347 -44 73 -86 141 -91 150 -20 33 -164 245 -205 300 -13 17 -31 32
-39 32 -9 -1 -43 -14 -76 -30z"/>
<path d="M5540 2589 c-81 -88 -86 -98 -63 -105 10 -3 33 -12 51 -20 18 -8 39
-14 47 -14 7 0 26 -6 42 -14 15 -7 44 -20 63 -29 98 -43 147 -66 285 -134 83
-41 177 -89 210 -108 33 -18 83 -45 110 -59 28 -15 57 -31 65 -36 87 -56 158
-85 148 -62 -3 8 -145 132 -278 243 -92 76 -330 252 -420 310 -134 86 -156 99
-176 99 -11 0 -47 -31 -84 -71z"/>
</g>
</svg>
